<?xml version="1.0" encoding="UTF-8" standalone="no"?>
<!-- Created with Inkscape (http://www.inkscape.org/) -->

<svg
   xmlns:ns0="http://www.iki.fi/pav/software/textext/"
   xmlns:dc="http://purl.org/dc/elements/1.1/"
   xmlns:cc="http://creativecommons.org/ns#"
   xmlns:rdf="http://www.w3.org/1999/02/22-rdf-syntax-ns#"
   xmlns:svg="http://www.w3.org/2000/svg"
   xmlns="http://www.w3.org/2000/svg"
   xmlns:xlink="http://www.w3.org/1999/xlink"
   xmlns:sodipodi="http://sodipodi.sourceforge.net/DTD/sodipodi-0.dtd"
   xmlns:inkscape="http://www.inkscape.org/namespaces/inkscape"
   width="241.79123"
   height="211.79124"
   id="svg2"
   version="1.1"
   inkscape:version="0.48.4 r9939"
   sodipodi:docname="balls_touching.svg">
  <sodipodi:namedview
     id="base"
     pagecolor="#ffffff"
     bordercolor="#666666"
     borderopacity="1.0"
     inkscape:pageopacity="0.0"
     inkscape:pageshadow="2"
     inkscape:zoom="3.959798"
     inkscape:cx="165.76758"
     inkscape:cy="101.05192"
     inkscape:document-units="px"
     inkscape:current-layer="layer1"
     showgrid="true"
     inkscape:snap-bbox="true"
     inkscape:snap-bbox-midpoints="true"
     inkscape:window-width="1364"
     inkscape:window-height="766"
     inkscape:window-x="0"
     inkscape:window-y="0"
     inkscape:window-maximized="0"
     fit-margin-top="0"
     fit-margin-left="0"
     fit-margin-right="0"
     fit-margin-bottom="0">
    <inkscape:grid
       type="xygrid"
       id="grid3005"
       empspacing="5"
       visible="true"
       enabled="true"
       snapvisiblegridlinesonly="true"
       originx="-158.91685px"
       originy="-768.91685px" />
  </sodipodi:namedview>
  <defs
     id="defs4">
    <marker
       inkscape:stockid="Arrow1Lstart"
       orient="auto"
       refY="0.0"
       refX="0.0"
       id="Arrow1Lstart"
       style="overflow:visible">
      <path
         id="path10607"
         d="M 0.0,0.0 L 5.0,-5.0 L -12.5,0.0 L 5.0,5.0 L 0.0,0.0 z "
         style="fill-rule:evenodd;stroke:#000000;stroke-width:1.0pt"
         transform="scale(0.8) translate(12.5,0)" />
    </marker>
    <marker
       inkscape:stockid="Arrow1LstartG"
       orient="auto"
       refY="0.0"
       refX="0.0"
       id="Arrow1LstartG"
       style="overflow:visible">
      <path
         id="path25793"
         d="M 0.0,0.0 L 5.0,-5.0 L -12.5,0.0 L 5.0,5.0 L 0.0,0.0 z "
         style="stroke:#ff0000;stroke-width:1.0pt;fill:#ff0000;fill-rule:evenodd"
         transform="scale(0.8) translate(12.5,0)" />
    </marker>
  </defs>
  <metadata
     id="metadata7">
    <rdf:RDF>
      <cc:Work
         rdf:about="">
        <dc:format>image/svg+xml</dc:format>
        <dc:type
           rdf:resource="http://purl.org/dc/dcmitype/StillImage" />
        <dc:title />
      </cc:Work>
    </rdf:RDF>
  </metadata>
  <g
     inkscape:label="Calque 1"
     inkscape:groupmode="layer"
     id="layer1"
     transform="translate(-158.91685,-71.654091)">
    <path
       sodipodi:type="arc"
       style="fill:none;stroke:#000000;stroke-width:4.36276865;stroke-miterlimit:4;stroke-opacity:1;stroke-dasharray:none"
       id="path2985"
       sodipodi:cx="218.19295"
       sodipodi:cy="177.57008"
       sodipodi:rx="62.629459"
       sodipodi:ry="55.558392"
       d="m 280.82241,177.57008 c 0,30.68406 -28.04017,55.5584 -62.62946,55.5584 -34.5893,0 -62.62946,-24.87434 -62.62946,-55.5584 0,-30.68405 28.04016,-55.55839 62.62946,-55.55839 34.58929,0 62.62946,24.87434 62.62946,55.55839 z"
       transform="matrix(0.86354172,0,0,0.97344701,26.581287,54.507113)" />
    <path
       sodipodi:type="arc"
       style="fill:none;stroke:#000000;stroke-width:3.09615827;stroke-miterlimit:4;stroke-opacity:1;stroke-dasharray:none"
       id="path2985-5"
       sodipodi:cx="218.19295"
       sodipodi:cy="177.57008"
       sodipodi:rx="62.629459"
       sodipodi:ry="55.558392"
       d="m 280.82241,177.57008 c 0,30.68406 -28.04017,55.5584 -62.62946,55.5584 -34.5893,0 -62.62946,-24.87434 -62.62946,-55.5584 0,-30.68405 28.04016,-55.55839 62.62946,-55.55839 34.58929,0 62.62946,24.87434 62.62946,55.55839 z"
       transform="matrix(1.2168088,0,0,1.3716754,57.000902,-93.706345)" />
    <path
       style="stroke-linejoin:miter;stroke-opacity:1;marker-start:url(#Arrow1LstartG);stroke:#ff0000;stroke-linecap:butt;stroke-miterlimit:4;stroke-dasharray:none;stroke-width:0.69499999999999995;fill:#ff0000"
       d="M 214.84742,227.51476 324.65258,147.70961"
       id="path3015"
       inkscape:connector-curvature="0" />
    <text
       xml:space="preserve"
       style="font-size:40px;font-style:normal;font-weight:normal;line-height:125%;letter-spacing:0px;word-spacing:0px;fill:#000000;fill-opacity:1;stroke:none;font-family:Sans"
       x="299.28571"
       y="197.00504"
       id="text3017"
       sodipodi:linespacing="125%"><tspan
         sodipodi:role="line"
         id="tspan3019"
         x="299.28571"
         y="197.00504" /></text>
    <g
       id="g3156"
       ns0:preamble=""
       ns0:text="$\\mathcal{A}$"
       transform="translate(-32.541382,70.948746)">
      <defs
         id="defs3158">
        <g
           id="g3160">
          <symbol
             style="overflow:visible"
             id="textext-10c3526b-0"
             overflow="visible">
            <path
               inkscape:connector-curvature="0"
               id="path3163"
               d=""
               style="stroke:none" />
          </symbol>
          <symbol
             style="overflow:visible"
             id="textext-10c3526b-1"
             overflow="visible">
            <path
               inkscape:connector-curvature="0"
               id="path3166"
               d="m 5.9375,-1.640625 c 0.046875,0.625 0.15625,1.078125 0.21875,1.265625 0.109375,0.453125 0.15625,0.671875 0.578125,0.671875 0.453125,0 1.21875,-0.453125 1.21875,-0.640625 0,-0.0625 -0.03125,-0.078125 -0.09375,-0.078125 -0.125,0 -0.328125,0.109375 -0.359375,0.125 C 7.421875,-0.25 7.40625,-0.25 7.390625,-0.25 7.109375,-0.25 7.046875,-0.515625 6.921875,-1.109375 6.859375,-1.453125 6.765625,-1.84375 6.6875,-3.203125 6.625,-4.234375 6.578125,-5.25 6.578125,-6.265625 6.578125,-6.5 6.59375,-6.765625 6.59375,-7 c 0,-0.15625 0,-0.203125 -0.109375,-0.203125 -0.140625,0 -0.546875,0.171875 -0.734375,0.4375 L 5.6875,-6.65625 c -0.796875,1.6875 -1.53125,2.890625 -2.046875,3.703125 -0.59375,0.90625 -1.625,2.53125 -2.171875,2.53125 -0.359375,0 -0.671875,-0.234375 -0.765625,-0.59375 0,-0.015625 -0.03125,-0.078125 -0.0625,-0.078125 -0.15625,0 -0.375,0.46875 -0.375,0.75 0,0.40625 0.4375,0.84375 0.90625,0.84375 C 1.859375,0.5 3,-1.296875 3.21875,-1.640625 z m -0.203125,-4.328125 0,0.578125 c 0,0.578125 0.015625,1.15625 0.046875,1.734375 0.015625,0.203125 0.046875,0.9375 0.09375,1.46875 l -1.8125,0 c -0.171875,0 -0.3125,0 -0.578125,0.15625 0.703125,-1.078125 1.28125,-2.109375 1.34375,-2.21875 0.5,-0.890625 0.765625,-1.46875 0.890625,-1.71875 z"
               style="stroke:none" />
          </symbol>
        </g>
      </defs>
      <g
         id="textext-10c3526b-2"
         transform="matrix(3.101626,0,0,3.101626,-478.20688,-276.1819)">
        <g
           id="g3169"
           style="fill:#000000;fill-opacity:1">
          <use
             height="1052.3622"
             width="744.09448"
             id="use3171"
             y="134.765"
             x="223.43201"
             xlink:href="#textext-10c3526b-1" />
        </g>
      </g>
    </g>
    <g
       transform="matrix(3.6604931,0,0,3.6604931,-537.12209,-370.20634)"
       ns0:text="$\\mathcal{B}$"
       ns0:preamble=""
       id="g3269">
      <defs
         id="defs3271">
        <g
           id="g3273">
          <symbol
             style="overflow:visible"
             overflow="visible"
             id="textext-e2b10d5b-0">
            <path
               inkscape:connector-curvature="0"
               style="stroke:none"
               d=""
               id="path3276" />
          </symbol>
          <symbol
             style="overflow:visible"
             overflow="visible"
             id="textext-e2b10d5b-1">
            <path
               inkscape:connector-curvature="0"
               style="stroke:none"
               d="M 2.796875,-6.765625 C 2.8125,-6.875 2.8125,-6.890625 2.8125,-6.921875 2.8125,-7 2.796875,-7.03125 2.703125,-7.03125 c -0.109375,0 -0.40625,0.15625 -0.609375,0.25 C 1.640625,-6.546875 1.25,-6.359375 1.25,-6.1875 c 0,0.0625 0.078125,0.0625 0.109375,0.0625 0.125,0 0.390625,-0.140625 0.578125,-0.21875 -0.125,0.96875 -0.359375,2.25 -0.546875,3.109375 C 1.03125,-1.546875 0.84375,-0.9375 0.34375,0.03125 0.296875,0.125 0.296875,0.140625 0.296875,0.15625 c 0,0.0625 0.078125,0.0625 0.109375,0.0625 0.15625,0 0.578125,-0.171875 0.734375,-0.453125 0.125,-0.234375 0.5,-0.96875 0.796875,-2.125 0.21875,-0.84375 0.609375,-2.15625 1.3125,-3.1875 0.453125,-0.640625 0.875,-0.9375 1.5,-0.9375 0.546875,0 1.03125,0.34375 1.03125,0.875 0,0.875 -0.953125,1.1875 -1.984375,1.546875 -0.125,0.03125 -0.8125,0.28125 -0.8125,0.53125 0,0.046875 0.078125,0.0625 0.109375,0.0625 0.03125,0 0.265625,-0.046875 0.46875,-0.046875 1.015625,0 1.828125,0.609375 1.828125,1.546875 0,1.234375 -1.046875,1.640625 -1.96875,1.640625 -0.765625,0 -1.125,-0.421875 -1.265625,-0.5625 -0.03125,-0.046875 -0.046875,-0.0625 -0.125,-0.0625 -0.21875,0 -0.71875,0.3125 -0.71875,0.484375 0,0.03125 0.375,0.6875 1.453125,0.6875 1.40625,0 3.46875,-1 3.46875,-2.59375 0,-0.84375 -0.546875,-1.46875 -1.5625,-1.65625 0.796875,-0.34375 1.953125,-1.0625 1.953125,-2 0,-0.578125 -0.46875,-1 -1.21875,-1 -0.328125,0 -1.609375,0.078125 -2.8125,1.578125 z"
               id="path3279" />
          </symbol>
        </g>
      </defs>
      <g
         id="textext-e2b10d5b-2">
        <g
           style="fill:#000000;fill-opacity:1"
           id="g3282">
          <use
             height="1052.3622"
             width="744.09448"
             xlink:href="#textext-e2b10d5b-1"
             x="223.43201"
             y="134.765"
             id="use3284" />
        </g>
      </g>
    </g>
    <g
       id="g27318"
       style="fill:#ff0000"
       transform="matrix(2.3163898,0,0,2.3163898,-241.83175,-109.5995)"
       ns0:preamble=""
       ns0:text="$\\bf p_\\mathcal{A} - p_\\mathcal{B}$">
      <defs
         id="defs27320">
        <g
           id="g27322">
          <symbol
             id="textext-a6828b73-0"
             overflow="visible">
            <path
               id="path27325"
               d=""
               style="stroke:none;" />
          </symbol>
          <symbol
             id="textext-a6828b73-1"
             overflow="visible">
            <path
               id="path27328"
               d="M 2.1875 -3.28125 C 2.1875 -3.46875 2.203125 -3.484375 2.34375 -3.625 C 2.734375 -4.03125 3.265625 -4.09375 3.484375 -4.09375 C 4.140625 -4.09375 4.703125 -3.484375 4.703125 -2.21875 C 4.703125 -0.8125 4 -0.296875 3.359375 -0.296875 C 3.21875 -0.296875 2.75 -0.296875 2.296875 -0.84375 C 2.1875 -0.96875 2.1875 -0.984375 2.1875 -1.171875 Z M 2.1875 -0.390625 C 2.625 -0.046875 3.0625 0.0625 3.46875 0.0625 C 4.96875 0.0625 5.984375 -0.84375 5.984375 -2.21875 C 5.984375 -3.546875 5.078125 -4.484375 3.640625 -4.484375 C 2.890625 -4.484375 2.359375 -4.171875 2.140625 -4 L 2.140625 -4.484375 L 0.375 -4.40625 L 0.375 -3.9375 C 0.984375 -3.9375 1.0625 -3.9375 1.0625 -3.5625 L 1.0625 1.46875 L 0.375 1.46875 L 0.375 1.9375 C 0.640625 1.921875 1.25 1.90625 1.625 1.90625 C 2.015625 1.90625 2.609375 1.921875 2.875 1.9375 L 2.875 1.46875 L 2.1875 1.46875 Z "
               style="stroke:none;" />
          </symbol>
          <symbol
             id="textext-a6828b73-2"
             overflow="visible">
            <path
               id="path27331"
               d=""
               style="stroke:none;" />
          </symbol>
          <symbol
             id="textext-a6828b73-3"
             overflow="visible">
            <path
               id="path27334"
               d="M 4.6875 -1.140625 C 4.734375 -0.796875 4.78125 -0.578125 4.875 -0.296875 C 4.953125 0 5.015625 0.203125 5.34375 0.203125 C 5.703125 0.203125 6.265625 -0.125 6.265625 -0.28125 C 6.265625 -0.328125 6.25 -0.34375 6.1875 -0.34375 C 6.109375 -0.34375 6.03125 -0.3125 5.953125 -0.265625 C 5.859375 -0.21875 5.859375 -0.21875 5.828125 -0.21875 C 5.71875 -0.21875 5.625 -0.296875 5.609375 -0.359375 C 5.203125 -1.21875 5.09375 -4.171875 5.09375 -4.6875 C 5.09375 -4.78125 5.09375 -4.953125 5.078125 -5 C 5.078125 -5.03125 5.046875 -5.046875 5 -5.046875 C 4.90625 -5.046875 4.609375 -4.96875 4.453125 -4.734375 L 4.375 -4.625 C 3.390625 -2.625 2.171875 -1.09375 1.90625 -0.78125 C 1.8125 -0.671875 1.5 -0.328125 1.265625 -0.328125 C 1.125 -0.328125 0.78125 -0.4375 0.671875 -0.734375 C 0.640625 -0.78125 0.640625 -0.8125 0.609375 -0.8125 C 0.5 -0.8125 0.328125 -0.453125 0.328125 -0.265625 C 0.328125 0.03125 0.671875 0.359375 1.046875 0.359375 C 1.453125 0.359375 1.953125 -0.265625 2.5 -1.015625 C 2.578125 -1.109375 2.578125 -1.125 2.59375 -1.140625 C 2.59375 -1.140625 2.609375 -1.140625 2.734375 -1.140625 Z M 4.453125 -4.15625 C 4.46875 -3.53125 4.5 -2.703125 4.640625 -1.5625 L 3.21875 -1.5625 C 3.109375 -1.5625 2.984375 -1.5625 2.828125 -1.484375 C 3.421875 -2.3125 3.921875 -3.171875 4.4375 -4.15625 Z "
               style="stroke:none;" />
          </symbol>
          <symbol
             id="textext-a6828b73-4"
             overflow="visible">
            <path
               id="path27337"
               d="M 2.125 -4.734375 C 2.125 -4.75 2.140625 -4.828125 2.140625 -4.828125 C 2.140625 -4.90625 2.078125 -4.90625 2.0625 -4.90625 C 1.96875 -4.90625 1.875 -4.859375 1.625 -4.734375 C 1.21875 -4.515625 0.96875 -4.390625 0.96875 -4.265625 C 0.96875 -4.203125 1.03125 -4.203125 1.046875 -4.203125 C 1.140625 -4.203125 1.21875 -4.25 1.484375 -4.375 C 1.328125 -3.15625 1.09375 -2.140625 1.03125 -1.84375 C 0.90625 -1.3125 0.78125 -0.734375 0.4375 -0.109375 C 0.359375 0.046875 0.359375 0.0625 0.359375 0.078125 C 0.359375 0.140625 0.421875 0.140625 0.4375 0.140625 C 0.515625 0.140625 0.734375 0.078125 0.9375 -0.125 C 0.953125 -0.140625 1.0625 -0.3125 1.265625 -0.75 C 1.421875 -1.125 1.5 -1.421875 1.5625 -1.640625 C 1.859375 -2.75 2.5625 -4.484375 3.734375 -4.484375 C 4.125 -4.484375 4.484375 -4.28125 4.484375 -3.890625 C 4.484375 -3.546875 4.28125 -3.421875 4.015625 -3.28125 C 3.71875 -3.109375 3.15625 -2.921875 2.9375 -2.859375 C 2.703125 -2.78125 2.640625 -2.765625 2.515625 -2.671875 C 2.359375 -2.546875 2.359375 -2.484375 2.359375 -2.46875 C 2.359375 -2.421875 2.390625 -2.40625 2.4375 -2.40625 C 2.46875 -2.40625 2.484375 -2.40625 2.515625 -2.40625 C 2.515625 -2.40625 2.6875 -2.453125 2.859375 -2.453125 C 3.578125 -2.453125 4.265625 -2.078125 4.265625 -1.375 C 4.265625 -1.15625 4.1875 -0.71875 3.78125 -0.5 C 3.515625 -0.359375 3.078125 -0.28125 2.765625 -0.28125 C 2.484375 -0.28125 2.109375 -0.34375 1.78125 -0.625 C 1.703125 -0.6875 1.703125 -0.6875 1.65625 -0.6875 C 1.46875 -0.6875 1.09375 -0.453125 1.09375 -0.328125 C 1.09375 -0.265625 1.328125 -0.09375 1.546875 0 C 1.859375 0.140625 2.125 0.140625 2.265625 0.140625 C 3.484375 0.140625 4.90625 -0.578125 4.90625 -1.6875 C 4.90625 -2.390625 4.3125 -2.75 3.71875 -2.84375 C 4.21875 -3.078125 5.125 -3.53125 5.125 -4.203125 C 5.125 -4.578125 4.796875 -4.90625 4.234375 -4.90625 C 3.59375 -4.90625 2.65625 -4.515625 1.984375 -3.65625 Z "
               style="stroke:none;" />
          </symbol>
          <symbol
             id="textext-a6828b73-5"
             overflow="visible">
            <path
               id="path27340"
               d=""
               style="stroke:none;" />
          </symbol>
          <symbol
             id="textext-a6828b73-6"
             overflow="visible">
            <path
               id="path27343"
               d="M 6.5625 -2.296875 C 6.734375 -2.296875 6.921875 -2.296875 6.921875 -2.5 C 6.921875 -2.6875 6.734375 -2.6875 6.5625 -2.6875 L 1.171875 -2.6875 C 1 -2.6875 0.828125 -2.6875 0.828125 -2.5 C 0.828125 -2.296875 1 -2.296875 1.171875 -2.296875 Z "
               style="stroke:none;" />
          </symbol>
        </g>
      </defs>
      <g
         id="textext-a6828b73-7"
         style="fill:#ff0000">
        <g
           id="g27346"
           style="fill:#ff0000;fill-opacity:1">
          <use
             id="use27348"
             y="134.765"
             x="223.432"
             xlink:href="#textext-a6828b73-1"
             style="fill:#ff0000" />
        </g>
        <g
           id="g27350"
           style="fill:#ff0000;fill-opacity:1">
          <use
             id="use27352"
             y="136.259"
             x="229.797"
             xlink:href="#textext-a6828b73-3"
             style="fill:#ff0000" />
        </g>
        <g
           id="g27354"
           style="fill:#ff0000;fill-opacity:1">
          <use
             id="use27356"
             y="134.765"
             x="238.908"
             xlink:href="#textext-a6828b73-6"
             style="fill:#ff0000" />
        </g>
        <g
           id="g27358"
           style="fill:#ff0000;fill-opacity:1">
          <use
             id="use27360"
             y="134.765"
             x="248.871"
             xlink:href="#textext-a6828b73-1"
             style="fill:#ff0000" />
        </g>
        <g
           id="g27362"
           style="fill:#ff0000;fill-opacity:1">
          <use
             id="use27364"
             y="136.259"
             x="255.236"
             xlink:href="#textext-a6828b73-4"
             style="fill:#ff0000" />
        </g>
      </g>
    </g>
  </g>
</svg>
