<?xml version="1.0" encoding="UTF-8" standalone="no"?>
<!-- Created with Inkscape (http://www.inkscape.org/) -->

<svg
   xmlns:ns0="http://www.iki.fi/pav/software/textext/"
   xmlns:dc="http://purl.org/dc/elements/1.1/"
   xmlns:cc="http://creativecommons.org/ns#"
   xmlns:rdf="http://www.w3.org/1999/02/22-rdf-syntax-ns#"
   xmlns:svg="http://www.w3.org/2000/svg"
   xmlns="http://www.w3.org/2000/svg"
   xmlns:xlink="http://www.w3.org/1999/xlink"
   xmlns:sodipodi="http://sodipodi.sourceforge.net/DTD/sodipodi-0.dtd"
   xmlns:inkscape="http://www.inkscape.org/namespaces/inkscape"
   width="244"
   height="171.63823"
   id="svg2"
   version="1.1"
   inkscape:version="0.48.4 r9939"
   sodipodi:docname="convexe.svg">
  <sodipodi:namedview
     id="base"
     pagecolor="#ffffff"
     bordercolor="#666666"
     borderopacity="1.0"
     inkscape:pageopacity="0.0"
     inkscape:pageshadow="2"
     inkscape:zoom="2.8"
     inkscape:cx="102.32966"
     inkscape:cy="74.617767"
     inkscape:document-units="px"
     inkscape:current-layer="layer1"
     showgrid="true"
     inkscape:window-width="1364"
     inkscape:window-height="766"
     inkscape:window-x="0"
     inkscape:window-y="0"
     inkscape:window-maximized="0"
     fit-margin-top="0"
     fit-margin-left="0"
     fit-margin-right="0"
     fit-margin-bottom="0">
    <inkscape:grid
       type="xygrid"
       id="grid2985"
       empspacing="5"
       visible="true"
       enabled="true"
       snapvisiblegridlinesonly="true"
       originx="-559.33377px"
       originy="-1614.625px" />
  </sodipodi:namedview>
  <defs
     id="defs4" />
  <metadata
     id="metadata7">
    <rdf:RDF>
      <cc:Work
         rdf:about="">
        <dc:format>image/svg+xml</dc:format>
        <dc:type
           rdf:resource="http://purl.org/dc/dcmitype/StillImage" />
        <dc:title />
      </cc:Work>
    </rdf:RDF>
  </metadata>
  <g
     inkscape:label="Calque 1"
     inkscape:groupmode="layer"
     id="layer1"
     transform="translate(-178,-107.34003)">
    <path
       style="fill:none;stroke:#000000;stroke-width:4;stroke-linecap:butt;stroke-linejoin:round;stroke-miterlimit:4;stroke-opacity:1;stroke-dasharray:none"
       d="m 180,252.36218 50,-130 120,0 70,70 -80,70 z"
       id="path2987"
       inkscape:connector-curvature="0" />
    <path
       style="fill:#008000;stroke:#008000;stroke-width:1px;stroke-linecap:butt;stroke-linejoin:miter;stroke-opacity:1"
       d="m 298.92857,139.50504 75,60 0,0"
       id="path2989"
       inkscape:connector-curvature="0" />
    <path
       style="fill:#008000;stroke:#008000;stroke-width:1px;stroke-linecap:butt;stroke-linejoin:miter;stroke-opacity:1"
       d="m 340,262.36218 -110,-140"
       id="path2991"
       inkscape:connector-curvature="0" />
    <g
       id="g3785"
       ns0:preamble=""
       ns0:text="$\\mathcal{A}$"
       transform="matrix(3.2718053,0,0,3.2718053,-527.53124,-204.08145)">
      <defs
         id="defs3787">
        <g
           id="g3789">
          <symbol
             id="textext-10c3526b-0"
             overflow="visible"
             style="overflow:visible">
            <path
               id="path3792"
               d=""
               style="stroke:none"
               inkscape:connector-curvature="0" />
          </symbol>
          <symbol
             id="textext-10c3526b-1"
             overflow="visible"
             style="overflow:visible">
            <path
               id="path3795"
               d="m 5.9375,-1.640625 c 0.046875,0.625 0.15625,1.078125 0.21875,1.265625 0.109375,0.453125 0.15625,0.671875 0.578125,0.671875 0.453125,0 1.21875,-0.453125 1.21875,-0.640625 0,-0.0625 -0.03125,-0.078125 -0.09375,-0.078125 -0.125,0 -0.328125,0.109375 -0.359375,0.125 C 7.421875,-0.25 7.40625,-0.25 7.390625,-0.25 7.109375,-0.25 7.046875,-0.515625 6.921875,-1.109375 6.859375,-1.453125 6.765625,-1.84375 6.6875,-3.203125 6.625,-4.234375 6.578125,-5.25 6.578125,-6.265625 6.578125,-6.5 6.59375,-6.765625 6.59375,-7 c 0,-0.15625 0,-0.203125 -0.109375,-0.203125 -0.140625,0 -0.546875,0.171875 -0.734375,0.4375 L 5.6875,-6.65625 c -0.796875,1.6875 -1.53125,2.890625 -2.046875,3.703125 -0.59375,0.90625 -1.625,2.53125 -2.171875,2.53125 -0.359375,0 -0.671875,-0.234375 -0.765625,-0.59375 0,-0.015625 -0.03125,-0.078125 -0.0625,-0.078125 -0.15625,0 -0.375,0.46875 -0.375,0.75 0,0.40625 0.4375,0.84375 0.90625,0.84375 C 1.859375,0.5 3,-1.296875 3.21875,-1.640625 z m -0.203125,-4.328125 0,0.578125 c 0,0.578125 0.015625,1.15625 0.046875,1.734375 0.015625,0.203125 0.046875,0.9375 0.09375,1.46875 l -1.8125,0 c -0.171875,0 -0.3125,0 -0.578125,0.15625 0.703125,-1.078125 1.28125,-2.109375 1.34375,-2.21875 0.5,-0.890625 0.765625,-1.46875 0.890625,-1.71875 z"
               style="stroke:none"
               inkscape:connector-curvature="0" />
          </symbol>
        </g>
      </defs>
      <g
         id="textext-10c3526b-2">
        <g
           id="g3798"
           style="fill:#000000;fill-opacity:1">
          <use
             id="use3800"
             y="134.765"
             x="223.43201"
             xlink:href="#textext-10c3526b-1"
             width="222.73764"
             height="174.99583" />
        </g>
      </g>
    </g>
    <g
       ns0:text="$\\bf p_2$"
       ns0:preamble=""
       transform="matrix(2.7370122,0,0,2.7370122,-412.91845,-249.23963)"
       style="fill:#008000;stroke:#008000"
       id="g27596">
      <defs
         id="defs27598">
        <g
           id="g27600">
          <symbol
             overflow="visible"
             id="textext-51503efe-0"
             style="overflow:visible">
            <path
               style="stroke:none"
               d=""
               id="path27603"
               inkscape:connector-curvature="0" />
          </symbol>
          <symbol
             overflow="visible"
             id="textext-51503efe-1"
             style="overflow:visible">
            <path
               style="stroke:none"
               d="m 2.1875,-3.28125 c 0,-0.1875 0.015625,-0.203125 0.15625,-0.34375 0.390625,-0.40625 0.921875,-0.46875 1.140625,-0.46875 0.65625,0 1.21875,0.609375 1.21875,1.875 0,1.40625 -0.703125,1.921875 -1.34375,1.921875 -0.140625,0 -0.609375,0 -1.0625,-0.546875 C 2.1875,-0.96875 2.1875,-0.984375 2.1875,-1.171875 z m 0,2.890625 c 0.4375,0.34375 0.875,0.453125 1.28125,0.453125 1.5,0 2.515625,-0.90625 2.515625,-2.28125 0,-1.328125 -0.90625,-2.265625 -2.34375,-2.265625 -0.75,0 -1.28125,0.3125 -1.5,0.484375 l 0,-0.484375 -1.765625,0.078125 0,0.46875 c 0.609375,0 0.6875,0 0.6875,0.375 l 0,5.03125 -0.6875,0 0,0.46875 C 0.640625,1.921875 1.25,1.90625 1.625,1.90625 c 0.390625,0 0.984375,0.015625 1.25,0.03125 l 0,-0.46875 -0.6875,0 z"
               id="path27606"
               inkscape:connector-curvature="0" />
          </symbol>
          <symbol
             overflow="visible"
             id="textext-51503efe-2"
             style="overflow:visible">
            <path
               style="stroke:none"
               d=""
               id="path27609"
               inkscape:connector-curvature="0" />
          </symbol>
          <symbol
             overflow="visible"
             id="textext-51503efe-3"
             style="overflow:visible">
            <path
               style="stroke:none"
               d="m 4.03125,-1.59375 -0.4375,0 C 3.578125,-1.5 3.515625,-1.015625 3.390625,-0.984375 c -0.15625,0.03125 -0.5625,0.03125 -0.734375,0.03125 l -0.953125,0 c 0.390625,-0.28125 0.78125,-0.578125 1.1875,-0.828125 0.5625,-0.359375 1.140625,-0.734375 1.140625,-1.4375 0,-0.828125 -0.796875,-1.359375 -1.90625,-1.359375 -0.9375,0 -1.65625,0.375 -1.65625,1.03125 0,0.40625 0.328125,0.5625 0.546875,0.5625 0.25,0 0.53125,-0.171875 0.53125,-0.546875 0,-0.34375 -0.25,-0.46875 -0.265625,-0.484375 0.25,-0.15625 0.5625,-0.171875 0.65625,-0.171875 0.578125,0 1.046875,0.375 1.046875,0.984375 0,0.53125 -0.359375,0.984375 -0.765625,1.328125 L 0.5625,-0.390625 C 0.484375,-0.3125 0.46875,-0.3125 0.46875,-0.171875 L 0.46875,0 3.796875,0 z"
               id="path27612"
               inkscape:connector-curvature="0" />
          </symbol>
        </g>
      </defs>
      <g
         style="fill:#008000"
         id="textext-51503efe-4">
        <g
           style="fill:#008000;fill-opacity:1"
           id="g27615">
          <use
             style="fill:#008000"
             xlink:href="#textext-51503efe-1"
             x="223.43201"
             y="134.765"
             id="use27617"
             width="244"
             height="174.99583" />
        </g>
        <g
           style="fill:#008000;fill-opacity:1"
           id="g27619">
          <use
             style="fill:#008000"
             xlink:href="#textext-51503efe-3"
             x="229.797"
             y="136.259"
             id="use27621"
             width="244"
             height="174.99583" />
        </g>
      </g>
    </g>
    <g
       id="g27771"
       style="fill:#008000;stroke:#008000"
       transform="matrix(2.7370122,0,0,2.7370122,-345.06131,-226.38248)"
       ns0:preamble=""
       ns0:text="$\\bf p_4$">
      <defs
         id="defs27773">
        <g
           id="g27775">
          <symbol
             id="textext-bb5fe946-0"
             overflow="visible"
             style="overflow:visible">
            <path
               id="path27778"
               d=""
               style="stroke:none"
               inkscape:connector-curvature="0" />
          </symbol>
          <symbol
             id="textext-bb5fe946-1"
             overflow="visible"
             style="overflow:visible">
            <path
               id="path27781"
               d="m 2.1875,-3.28125 c 0,-0.1875 0.015625,-0.203125 0.15625,-0.34375 0.390625,-0.40625 0.921875,-0.46875 1.140625,-0.46875 0.65625,0 1.21875,0.609375 1.21875,1.875 0,1.40625 -0.703125,1.921875 -1.34375,1.921875 -0.140625,0 -0.609375,0 -1.0625,-0.546875 C 2.1875,-0.96875 2.1875,-0.984375 2.1875,-1.171875 z m 0,2.890625 c 0.4375,0.34375 0.875,0.453125 1.28125,0.453125 1.5,0 2.515625,-0.90625 2.515625,-2.28125 0,-1.328125 -0.90625,-2.265625 -2.34375,-2.265625 -0.75,0 -1.28125,0.3125 -1.5,0.484375 l 0,-0.484375 -1.765625,0.078125 0,0.46875 c 0.609375,0 0.6875,0 0.6875,0.375 l 0,5.03125 -0.6875,0 0,0.46875 C 0.640625,1.921875 1.25,1.90625 1.625,1.90625 c 0.390625,0 0.984375,0.015625 1.25,0.03125 l 0,-0.46875 -0.6875,0 z"
               style="stroke:none"
               inkscape:connector-curvature="0" />
          </symbol>
          <symbol
             id="textext-bb5fe946-2"
             overflow="visible"
             style="overflow:visible">
            <path
               id="path27784"
               d=""
               style="stroke:none"
               inkscape:connector-curvature="0" />
          </symbol>
          <symbol
             id="textext-bb5fe946-3"
             overflow="visible"
             style="overflow:visible">
            <path
               id="path27787"
               d="m 4.21875,-1.078125 0,-0.390625 -0.75,0 0,-2.90625 c 0,-0.203125 -0.046875,-0.234375 -0.25,-0.234375 l -0.109375,0 c -0.125,0 -0.1875,0 -0.265625,0.09375 l -2.5625,3.046875 0,0.390625 2.234375,0 0,0.6875 -0.875,0 0,0.390625 c 0.34375,-0.03125 0.96875,-0.03125 1.328125,-0.03125 0.15625,0 1.078125,0.015625 1.25,0.03125 l 0,-0.390625 -0.75,0 0,-0.6875 z m -1.625,-2.578125 0,2.1875 -1.828125,0 z"
               style="stroke:none"
               inkscape:connector-curvature="0" />
          </symbol>
        </g>
      </defs>
      <g
         id="textext-bb5fe946-4"
         style="fill:#008000">
        <g
           id="g27790"
           style="fill:#008000;fill-opacity:1">
          <use
             id="use27792"
             y="134.765"
             x="223.43201"
             xlink:href="#textext-bb5fe946-1"
             width="244"
             height="174.99583"
             style="fill:#008000" />
        </g>
        <g
           id="g27794"
           style="fill:#008000;fill-opacity:1">
          <use
             id="use27796"
             y="136.259"
             x="229.797"
             xlink:href="#textext-bb5fe946-3"
             width="244"
             height="174.99583"
             style="fill:#008000" />
        </g>
      </g>
    </g>
    <g
       ns0:text="$\\bf p_3$"
       ns0:preamble=""
       transform="matrix(2.8225007,0,0,2.8225007,-255.2069,-184.0075)"
       style="fill:#008000;stroke:#008000"
       id="g27946">
      <defs
         id="defs27948">
        <g
           id="g27950">
          <symbol
             style="overflow:visible"
             overflow="visible"
             id="textext-4ba54144-0">
            <path
               inkscape:connector-curvature="0"
               style="stroke:none"
               d=""
               id="path27953" />
          </symbol>
          <symbol
             style="overflow:visible"
             overflow="visible"
             id="textext-4ba54144-1">
            <path
               inkscape:connector-curvature="0"
               style="stroke:none"
               d="m 2.1875,-3.28125 c 0,-0.1875 0.015625,-0.203125 0.15625,-0.34375 0.390625,-0.40625 0.921875,-0.46875 1.140625,-0.46875 0.65625,0 1.21875,0.609375 1.21875,1.875 0,1.40625 -0.703125,1.921875 -1.34375,1.921875 -0.140625,0 -0.609375,0 -1.0625,-0.546875 C 2.1875,-0.96875 2.1875,-0.984375 2.1875,-1.171875 z m 0,2.890625 c 0.4375,0.34375 0.875,0.453125 1.28125,0.453125 1.5,0 2.515625,-0.90625 2.515625,-2.28125 0,-1.328125 -0.90625,-2.265625 -2.34375,-2.265625 -0.75,0 -1.28125,0.3125 -1.5,0.484375 l 0,-0.484375 -1.765625,0.078125 0,0.46875 c 0.609375,0 0.6875,0 0.6875,0.375 l 0,5.03125 -0.6875,0 0,0.46875 C 0.640625,1.921875 1.25,1.90625 1.625,1.90625 c 0.390625,0 0.984375,0.015625 1.25,0.03125 l 0,-0.46875 -0.6875,0 z"
               id="path27956" />
          </symbol>
          <symbol
             style="overflow:visible"
             overflow="visible"
             id="textext-4ba54144-2">
            <path
               inkscape:connector-curvature="0"
               style="stroke:none"
               d=""
               id="path27959" />
          </symbol>
          <symbol
             style="overflow:visible"
             overflow="visible"
             id="textext-4ba54144-3">
            <path
               inkscape:connector-curvature="0"
               style="stroke:none"
               d="m 2.109375,-2.265625 c 0.828125,0 0.859375,0.625 0.859375,1 0,0.296875 0,1 -0.84375,1 C 1.9375,-0.265625 1.5,-0.3125 1.203125,-0.5 1.359375,-0.5625 1.53125,-0.71875 1.53125,-1.015625 c 0,-0.328125 -0.234375,-0.5625 -0.5625,-0.5625 -0.34375,0 -0.578125,0.234375 -0.578125,0.5625 0,0.71875 0.78125,1.09375 1.765625,1.09375 1.453125,0 1.953125,-0.75 1.953125,-1.34375 0,-0.53125 -0.4375,-1.015625 -1.21875,-1.1875 0.5,-0.1875 0.96875,-0.546875 0.96875,-1.125 0,-0.546875 -0.5625,-1 -1.671875,-1 -0.953125,0 -1.546875,0.46875 -1.546875,1.046875 0,0.359375 0.265625,0.546875 0.53125,0.546875 0.34375,0 0.53125,-0.265625 0.53125,-0.53125 0,-0.359375 -0.28125,-0.484375 -0.34375,-0.5 C 1.640625,-4.21875 2,-4.25 2.140625,-4.25 c 0.6875,0 0.6875,0.453125 0.6875,0.640625 0,0.328125 -0.140625,0.96875 -0.828125,1 -0.1875,0.015625 -0.359375,0.015625 -0.390625,0.03125 -0.09375,0.03125 -0.09375,0.109375 -0.09375,0.15625 0,0.15625 0.09375,0.15625 0.21875,0.15625 z"
               id="path27962" />
          </symbol>
        </g>
      </defs>
      <g
         style="fill:#008000"
         id="textext-4ba54144-4">
        <g
           style="fill:#008000;fill-opacity:1"
           id="g27965">
          <use
             height="174.99583"
             width="244"
             style="fill:#008000"
             xlink:href="#textext-4ba54144-1"
             x="223.43201"
             y="134.765"
             id="use27967" />
        </g>
        <g
           style="fill:#008000;fill-opacity:1"
           id="g27969">
          <use
             height="174.99583"
             width="244"
             style="fill:#008000"
             xlink:href="#textext-4ba54144-3"
             x="229.797"
             y="136.259"
             id="use27971" />
        </g>
      </g>
    </g>
    <g
       id="g28121"
       style="fill:#008000;stroke:#008000"
       transform="matrix(2.8225007,0,0,2.8225007,-284.49261,-106.86464)"
       ns0:preamble=""
       ns0:text="$\\bf p_1$">
      <defs
         id="defs28123">
        <g
           id="g28125">
          <symbol
             id="textext-45c05c1a-0"
             overflow="visible"
             style="overflow:visible">
            <path
               id="path28128"
               d=""
               style="stroke:none"
               inkscape:connector-curvature="0" />
          </symbol>
          <symbol
             id="textext-45c05c1a-1"
             overflow="visible"
             style="overflow:visible">
            <path
               id="path28131"
               d="m 2.1875,-3.28125 c 0,-0.1875 0.015625,-0.203125 0.15625,-0.34375 0.390625,-0.40625 0.921875,-0.46875 1.140625,-0.46875 0.65625,0 1.21875,0.609375 1.21875,1.875 0,1.40625 -0.703125,1.921875 -1.34375,1.921875 -0.140625,0 -0.609375,0 -1.0625,-0.546875 C 2.1875,-0.96875 2.1875,-0.984375 2.1875,-1.171875 z m 0,2.890625 c 0.4375,0.34375 0.875,0.453125 1.28125,0.453125 1.5,0 2.515625,-0.90625 2.515625,-2.28125 0,-1.328125 -0.90625,-2.265625 -2.34375,-2.265625 -0.75,0 -1.28125,0.3125 -1.5,0.484375 l 0,-0.484375 -1.765625,0.078125 0,0.46875 c 0.609375,0 0.6875,0 0.6875,0.375 l 0,5.03125 -0.6875,0 0,0.46875 C 0.640625,1.921875 1.25,1.90625 1.625,1.90625 c 0.390625,0 0.984375,0.015625 1.25,0.03125 l 0,-0.46875 -0.6875,0 z"
               style="stroke:none"
               inkscape:connector-curvature="0" />
          </symbol>
          <symbol
             id="textext-45c05c1a-2"
             overflow="visible"
             style="overflow:visible">
            <path
               id="path28134"
               d=""
               style="stroke:none"
               inkscape:connector-curvature="0" />
          </symbol>
          <symbol
             id="textext-45c05c1a-3"
             overflow="visible"
             style="overflow:visible">
            <path
               id="path28137"
               d="m 2.78125,-4.328125 c 0,-0.25 -0.046875,-0.25 -0.34375,-0.25 C 2,-4.21875 1.4375,-4.125 0.875,-4.125 l -0.171875,0 0,0.390625 0.171875,0 c 0.28125,0 0.703125,-0.046875 1,-0.140625 l 0,3.484375 -1.09375,0 0,0.390625 c 0.328125,-0.03125 1.171875,-0.03125 1.546875,-0.03125 0.25,0 0.5,0.015625 0.75,0.015625 0.21875,0 0.578125,0 0.78125,0.015625 l 0,-0.390625 -1.078125,0 z"
               style="stroke:none"
               inkscape:connector-curvature="0" />
          </symbol>
        </g>
      </defs>
      <g
         id="textext-45c05c1a-4"
         style="fill:#008000">
        <g
           id="g28140"
           style="fill:#008000;fill-opacity:1">
          <use
             id="use28142"
             y="134.765"
             x="223.43201"
             xlink:href="#textext-45c05c1a-1"
             style="fill:#008000"
             width="244"
             height="174.99583" />
        </g>
        <g
           id="g28144"
           style="fill:#008000;fill-opacity:1">
          <use
             id="use28146"
             y="136.259"
             x="229.797"
             xlink:href="#textext-45c05c1a-3"
             style="fill:#008000"
             width="244"
             height="174.99583" />
        </g>
      </g>
    </g>
  </g>
</svg>
