<?xml version="1.0" encoding="UTF-8" standalone="no"?>
<!-- Created with Inkscape (http://www.inkscape.org/) -->

<svg
   xmlns:ns0="http://www.iki.fi/pav/software/textext/"
   xmlns:dc="http://purl.org/dc/elements/1.1/"
   xmlns:cc="http://creativecommons.org/ns#"
   xmlns:rdf="http://www.w3.org/1999/02/22-rdf-syntax-ns#"
   xmlns:svg="http://www.w3.org/2000/svg"
   xmlns="http://www.w3.org/2000/svg"
   xmlns:xlink="http://www.w3.org/1999/xlink"
   xmlns:sodipodi="http://sodipodi.sourceforge.net/DTD/sodipodi-0.dtd"
   xmlns:inkscape="http://www.inkscape.org/namespaces/inkscape"
   width="170.67923"
   height="126.3699"
   id="svg2"
   version="1.1"
   inkscape:version="0.48.4 r9939"
   sodipodi:docname="sampling_bestproj.svg">
  <sodipodi:namedview
     id="base"
     pagecolor="#ffffff"
     bordercolor="#666666"
     borderopacity="1.0"
     inkscape:pageopacity="0.0"
     inkscape:pageshadow="2"
     inkscape:zoom="3.959798"
     inkscape:cx="76.733837"
     inkscape:cy="47.960758"
     inkscape:document-units="px"
     inkscape:current-layer="layer1"
     showgrid="false"
     fit-margin-top="0"
     fit-margin-left="0"
     fit-margin-right="0"
     fit-margin-bottom="0"
     inkscape:window-width="1364"
     inkscape:window-height="766"
     inkscape:window-x="0"
     inkscape:window-y="0"
     inkscape:window-maximized="0"
     inkscape:snap-global="false">
    <inkscape:grid
       snapvisiblegridlinesonly="true"
       enabled="true"
       visible="true"
       empspacing="5"
       id="grid2985"
       type="xygrid"
       originx="-139.89801px"
       originy="-824.25001px" />
  </sodipodi:namedview>
  <defs
     id="defs4">
    <marker
       style="overflow:visible"
       id="Arrow1Mend"
       refX="0"
       refY="0"
       orient="auto"
       inkscape:stockid="Arrow1Mend">
      <path
         transform="matrix(-0.4,0,0,-0.4,-4,0)"
         style="fill-rule:evenodd;stroke:#000000;stroke-width:1pt"
         d="M 0,0 5,-5 -12.5,0 5,5 0,0 z"
         id="path3778"
         inkscape:connector-curvature="0" />
    </marker>
    <marker
       style="overflow:visible"
       id="Arrow1Mstart"
       refX="0"
       refY="0"
       orient="auto"
       inkscape:stockid="Arrow1Mstart">
      <path
         transform="matrix(0.4,0,0,0.4,4,0)"
         style="fill-rule:evenodd;stroke:#000000;stroke-width:1pt"
         d="M 0,0 5,-5 -12.5,0 5,5 0,0 z"
         id="path3775"
         inkscape:connector-curvature="0" />
    </marker>
    <marker
       style="overflow:visible"
       id="Arrow1MstartD"
       refX="0"
       refY="0"
       orient="auto"
       inkscape:stockid="Arrow1MstartD">
      <path
         transform="matrix(0.4,0,0,0.4,4,0)"
         style="fill:#ff0000;fill-rule:evenodd;stroke:#ff0000;stroke-width:1pt"
         d="M 0,0 5,-5 -12.5,0 5,5 0,0 z"
         id="path7904"
         inkscape:connector-curvature="0" />
    </marker>
    <marker
       style="overflow:visible"
       id="Arrow1Mendr"
       refX="0"
       refY="0"
       orient="auto"
       inkscape:stockid="Arrow1Mendr">
      <path
         transform="matrix(-0.4,0,0,-0.4,-4,0)"
         style="fill:#ff0000;fill-rule:evenodd;stroke:#ff0000;stroke-width:1pt"
         d="M 0,0 5,-5 -12.5,0 5,5 0,0 z"
         id="path7907"
         inkscape:connector-curvature="0" />
    </marker>
    <marker
       style="overflow:visible"
       id="Arrow1Mstartc"
       refX="0"
       refY="0"
       orient="auto"
       inkscape:stockid="Arrow1Mstartc">
      <path
         transform="matrix(0.4,0,0,0.4,4,0)"
         style="fill:#ff0000;fill-rule:evenodd;stroke:#ff0000;stroke-width:1pt"
         d="M 0,0 5,-5 -12.5,0 5,5 0,0 z"
         id="path7910"
         inkscape:connector-curvature="0" />
    </marker>
    <marker
       style="overflow:visible"
       id="Arrow1Mend0"
       refX="0"
       refY="0"
       orient="auto"
       inkscape:stockid="Arrow1Mend0">
      <path
         transform="matrix(-0.4,0,0,-0.4,-4,0)"
         style="fill:#ff0000;fill-rule:evenodd;stroke:#ff0000;stroke-width:1pt"
         d="M 0,0 5,-5 -12.5,0 5,5 0,0 z"
         id="path7913"
         inkscape:connector-curvature="0" />
    </marker>
    <marker
       style="overflow:visible"
       id="Arrow1Mend1"
       refX="0"
       refY="0"
       orient="auto"
       inkscape:stockid="Arrow1Mend1">
      <path
         transform="matrix(-0.4,0,0,-0.4,-4,0)"
         style="fill:#ff0000;fill-rule:evenodd;stroke:#ff0000;stroke-width:1pt"
         d="M 0,0 5,-5 -12.5,0 5,5 0,0 z"
         id="path7916"
         inkscape:connector-curvature="0" />
    </marker>
    <marker
       style="overflow:visible"
       id="Arrow1MstartX"
       refX="0"
       refY="0"
       orient="auto"
       inkscape:stockid="Arrow1MstartX">
      <path
         transform="matrix(0.4,0,0,0.4,4,0)"
         style="fill:#ff0000;fill-rule:evenodd;stroke:#ff0000;stroke-width:1pt"
         d="M 0,0 5,-5 -12.5,0 5,5 0,0 z"
         id="path7919"
         inkscape:connector-curvature="0" />
    </marker>
    <marker
       style="overflow:visible"
       id="Arrow1MendN"
       refX="0"
       refY="0"
       orient="auto"
       inkscape:stockid="Arrow1MendN">
      <path
         transform="matrix(-0.4,0,0,-0.4,-4,0)"
         style="fill:#ff0000;fill-rule:evenodd;stroke:#ff0000;stroke-width:1pt"
         d="M 0,0 5,-5 -12.5,0 5,5 0,0 z"
         id="path7922"
         inkscape:connector-curvature="0" />
    </marker>
    <marker
       style="overflow:visible"
       id="Arrow1Mends"
       refX="0"
       refY="0"
       orient="auto"
       inkscape:stockid="Arrow1Mends">
      <path
         transform="matrix(-0.4,0,0,-0.4,-4,0)"
         style="fill:#ff0000;fill-rule:evenodd;stroke:#ff0000;stroke-width:1pt"
         d="M 0,0 5,-5 -12.5,0 5,5 0,0 z"
         id="path7925"
         inkscape:connector-curvature="0" />
    </marker>
    <marker
       style="overflow:visible"
       id="Arrow1Mendi"
       refX="0"
       refY="0"
       orient="auto"
       inkscape:stockid="Arrow1Mendi">
      <path
         transform="matrix(-0.4,0,0,-0.4,-4,0)"
         style="stroke:#0000ff;stroke-width:1pt;fill:#0000ff;fill-rule:evenodd"
         d="M 0,0 5,-5 -12.5,0 5,5 0,0 z"
         id="path9219"
         inkscape:connector-curvature="0" />
    </marker>
  </defs>
  <metadata
     id="metadata7">
    <rdf:RDF>
      <cc:Work
         rdf:about="">
        <dc:format>image/svg+xml</dc:format>
        <dc:type
           rdf:resource="http://purl.org/dc/dcmitype/StillImage" />
        <dc:title />
      </cc:Work>
    </rdf:RDF>
  </metadata>
  <g
     id="layer1"
     inkscape:groupmode="layer"
     inkscape:label="Calque 1"
     transform="translate(-139.89801,-101.74227)">
    <path
       inkscape:connector-curvature="0"
       id="path2987"
       d="m 177.17532,190.3005 0,-35.56819 15.24351,-15.24351 66.0552,0 15.24351,15.24351 0,35.56819 -15.24351,15.24351 -66.0552,0 z"
       style="fill:none;stroke:#000000;stroke-width:4.06493521;stroke-linecap:butt;stroke-linejoin:miter;stroke-miterlimit:4;stroke-opacity:1;stroke-dasharray:none" />
    <path
       inkscape:connector-curvature="0"
       id="path3761"
       d="m 190,102.36727 0,125.4949"
       style="fill:none;stroke:#000000;stroke-width:0.5;stroke-linecap:butt;stroke-linejoin:miter;stroke-miterlimit:4;stroke-opacity:1;stroke-dasharray:4, 2;stroke-dashoffset:0;marker-start:url(#Arrow1Mstart);marker-mid:none;marker-end:none" />
    <path
       inkscape:connector-curvature="0"
       id="path3763"
       d="m 140.14801,182.36218 169.80423,0"
       style="fill:none;stroke:#000000;stroke-width:0.5;stroke-linecap:butt;stroke-linejoin:miter;stroke-miterlimit:4;stroke-opacity:1;stroke-dasharray:4, 2;stroke-dashoffset:0;marker-start:none;marker-end:url(#Arrow1Mend)" />
    <path
       inkscape:connector-curvature="0"
       id="path6417"
       d="m 190,182.36218 -40,10"
       style="fill:none;stroke:#ff0000;stroke-width:1px;stroke-linecap:butt;stroke-linejoin:miter;stroke-opacity:1;marker-start:none;marker-end:url(#Arrow1Mend0)"
       sodipodi:nodetypes="cc" />
    <path
       style="stroke-linejoin:miter;marker-end:url(#Arrow1Mendi);stroke-opacity:1;marker-start:none;stroke:#0000ff;stroke-linecap:butt;stroke-width:1px;fill:#0000ff"
       d="m 49.750013,80.660501 -40.6586401,0"
       id="path8592"
       inkscape:connector-curvature="0"
       transform="translate(139.89801,101.74227)" />
    <text
       sodipodi:linespacing="125%"
       id="text9261"
       y="175.33171"
       x="145.70639"
       style="font-size:40px;font-style:normal;font-weight:normal;line-height:125%;letter-spacing:0px;word-spacing:0px;fill:#0000ff;fill-opacity:1;stroke:none;font-family:Sans"
       xml:space="preserve"><tspan
         style="font-size:6px;fill:#0000ff"
         y="175.33171"
         x="145.70639"
         id="tspan9263"
         sodipodi:role="line">Optimal</tspan></text>
    <text
       sodipodi:linespacing="125%"
       id="text9261-7"
       y="204.26109"
       x="140.26006"
       style="font-size:40px;font-style:normal;font-weight:normal;line-height:125%;letter-spacing:0px;word-spacing:0px;fill:#ff0000;fill-opacity:1;stroke:none;font-family:Sans"
       xml:space="preserve"><tspan
         style="font-size:6px;fill:#ff0000"
         y="204.26109"
         x="140.26006"
         id="tspan9263-4"
         sodipodi:role="line">Approximation</tspan></text>
    <g
       id="g9380"
       ns0:preamble=""
       ns0:text="$\\mathcal{A} \\oplus -\\mathcal{B}$"
       transform="translate(-3.2829958,20.960665)">
      <defs
         id="defs9382">
        <g
           id="g9384">
          <symbol
             id="textext-802a8bb4-0"
             overflow="visible"
             style="overflow:visible">
            <path
               id="path9387"
               d=""
               style="stroke:none"
               inkscape:connector-curvature="0" />
          </symbol>
          <symbol
             id="textext-802a8bb4-1"
             overflow="visible"
             style="overflow:visible">
            <path
               id="path9390"
               d="m 5.9375,-1.640625 c 0.046875,0.625 0.15625,1.078125 0.21875,1.265625 0.109375,0.453125 0.15625,0.671875 0.578125,0.671875 0.453125,0 1.21875,-0.453125 1.21875,-0.640625 0,-0.0625 -0.03125,-0.078125 -0.09375,-0.078125 -0.125,0 -0.328125,0.109375 -0.359375,0.125 C 7.421875,-0.25 7.40625,-0.25 7.390625,-0.25 7.109375,-0.25 7.046875,-0.515625 6.921875,-1.109375 6.859375,-1.453125 6.765625,-1.84375 6.6875,-3.203125 6.625,-4.234375 6.578125,-5.25 6.578125,-6.265625 6.578125,-6.5 6.59375,-6.765625 6.59375,-7 c 0,-0.15625 0,-0.203125 -0.109375,-0.203125 -0.140625,0 -0.546875,0.171875 -0.734375,0.4375 L 5.6875,-6.65625 c -0.796875,1.6875 -1.53125,2.890625 -2.046875,3.703125 -0.59375,0.90625 -1.625,2.53125 -2.171875,2.53125 -0.359375,0 -0.671875,-0.234375 -0.765625,-0.59375 0,-0.015625 -0.03125,-0.078125 -0.0625,-0.078125 -0.15625,0 -0.375,0.46875 -0.375,0.75 0,0.40625 0.4375,0.84375 0.90625,0.84375 C 1.859375,0.5 3,-1.296875 3.21875,-1.640625 z m -0.203125,-4.328125 0,0.578125 c 0,0.578125 0.015625,1.15625 0.046875,1.734375 0.015625,0.203125 0.046875,0.9375 0.09375,1.46875 l -1.8125,0 c -0.171875,0 -0.3125,0 -0.578125,0.15625 0.703125,-1.078125 1.28125,-2.109375 1.34375,-2.21875 0.5,-0.890625 0.765625,-1.46875 0.890625,-1.71875 z"
               style="stroke:none"
               inkscape:connector-curvature="0" />
          </symbol>
          <symbol
             id="textext-802a8bb4-2"
             overflow="visible"
             style="overflow:visible">
            <path
               id="path9393"
               d="m 7.203125,-2.5 c 0,-1.828125 -1.5,-3.3125 -3.328125,-3.3125 -1.84375,0 -3.328125,1.5 -3.328125,3.3125 0,1.84375 1.5,3.328125 3.328125,3.328125 1.84375,0 3.328125,-1.5 3.328125,-3.328125 z M 0.796875,-2.625 C 0.890625,-4.296875 2.1875,-5.484375 3.75,-5.5625 l 0,2.9375 z M 4,-5.5625 c 1.5625,0.078125 2.84375,1.28125 2.953125,2.9375 L 4,-2.625 z M 3.75,0.578125 C 2.203125,0.5 0.890625,-0.671875 0.796875,-2.375 l 2.953125,0 z M 6.953125,-2.375 C 6.84375,-0.671875 5.53125,0.5 4,0.578125 L 4,-2.375 z"
               style="stroke:none"
               inkscape:connector-curvature="0" />
          </symbol>
          <symbol
             id="textext-802a8bb4-3"
             overflow="visible"
             style="overflow:visible">
            <path
               id="path9396"
               d="m 6.5625,-2.296875 c 0.171875,0 0.359375,0 0.359375,-0.203125 0,-0.1875 -0.1875,-0.1875 -0.359375,-0.1875 l -5.390625,0 c -0.171875,0 -0.34375,0 -0.34375,0.1875 0,0.203125 0.171875,0.203125 0.34375,0.203125 z"
               style="stroke:none"
               inkscape:connector-curvature="0" />
          </symbol>
          <symbol
             id="textext-802a8bb4-4"
             overflow="visible"
             style="overflow:visible">
            <path
               id="path9399"
               d="M 2.796875,-6.765625 C 2.8125,-6.875 2.8125,-6.890625 2.8125,-6.921875 2.8125,-7 2.796875,-7.03125 2.703125,-7.03125 c -0.109375,0 -0.40625,0.15625 -0.609375,0.25 C 1.640625,-6.546875 1.25,-6.359375 1.25,-6.1875 c 0,0.0625 0.078125,0.0625 0.109375,0.0625 0.125,0 0.390625,-0.140625 0.578125,-0.21875 -0.125,0.96875 -0.359375,2.25 -0.546875,3.109375 C 1.03125,-1.546875 0.84375,-0.9375 0.34375,0.03125 0.296875,0.125 0.296875,0.140625 0.296875,0.15625 c 0,0.0625 0.078125,0.0625 0.109375,0.0625 0.15625,0 0.578125,-0.171875 0.734375,-0.453125 0.125,-0.234375 0.5,-0.96875 0.796875,-2.125 0.21875,-0.84375 0.609375,-2.15625 1.3125,-3.1875 0.453125,-0.640625 0.875,-0.9375 1.5,-0.9375 0.546875,0 1.03125,0.34375 1.03125,0.875 0,0.875 -0.953125,1.1875 -1.984375,1.546875 -0.125,0.03125 -0.8125,0.28125 -0.8125,0.53125 0,0.046875 0.078125,0.0625 0.109375,0.0625 0.03125,0 0.265625,-0.046875 0.46875,-0.046875 1.015625,0 1.828125,0.609375 1.828125,1.546875 0,1.234375 -1.046875,1.640625 -1.96875,1.640625 -0.765625,0 -1.125,-0.421875 -1.265625,-0.5625 -0.03125,-0.046875 -0.046875,-0.0625 -0.125,-0.0625 -0.21875,0 -0.71875,0.3125 -0.71875,0.484375 0,0.03125 0.375,0.6875 1.453125,0.6875 1.40625,0 3.46875,-1 3.46875,-2.59375 0,-0.84375 -0.546875,-1.46875 -1.5625,-1.65625 0.796875,-0.34375 1.953125,-1.0625 1.953125,-2 0,-0.578125 -0.46875,-1 -1.21875,-1 -0.328125,0 -1.609375,0.078125 -2.8125,1.578125 z"
               style="stroke:none"
               inkscape:connector-curvature="0" />
          </symbol>
        </g>
      </defs>
      <g
         id="textext-802a8bb4-5">
        <g
           id="g9402"
           style="fill:#000000;fill-opacity:1">
          <use
             id="use9404"
             y="134.765"
             x="223.43201"
             xlink:href="#textext-802a8bb4-1"
             width="170.67923"
             height="126.3699" />
        </g>
        <g
           id="g9406"
           style="fill:#000000;fill-opacity:1">
          <use
             id="use9408"
             y="134.765"
             x="233.59883"
             xlink:href="#textext-802a8bb4-2"
             width="170.67923"
             height="126.3699" />
        </g>
        <g
           id="g9410"
           style="fill:#000000;fill-opacity:1">
          <use
             id="use9412"
             y="134.765"
             x="243.55945"
             xlink:href="#textext-802a8bb4-3"
             width="170.67923"
             height="126.3699" />
          <use
             id="use9414"
             y="134.765"
             x="251.30835"
             xlink:href="#textext-802a8bb4-4"
             width="170.67923"
             height="126.3699" />
        </g>
      </g>
    </g>
  </g>
  <path
     style="fill:none;stroke:#00ff00;stroke-width:1px;stroke-linecap:butt;stroke-linejoin:miter;stroke-opacity:1"
     d="M 37.123106,88.489183 36.112954,83.690958"
     id="path8031"
     inkscape:connector-curvature="0" />
</svg>
